<?xml version="1.0" standalone="no"?>
<!DOCTYPE svg PUBLIC "-//W3C//DTD SVG 20010904//EN"
 "http://www.w3.org/TR/2001/REC-SVG-20010904/DTD/svg10.dtd">
<svg version="1.0" xmlns="http://www.w3.org/2000/svg"
 width="1218.000000pt" height="1218.000000pt" viewBox="0 0 1218.000000 1218.000000"
 preserveAspectRatio="xMidYMid meet">
<metadata>
Created by potrace 1.14, written by Peter Selinger 2001-2017
</metadata>
<g transform="translate(0.000000,1218.000000) scale(0.100000,-0.100000)"
fill="#000000" stroke="none">
<path d="M6052 11479 c-48 -6 -62 -20 -62 -60 0 -26 -23 -45 -41 -33 -5 3 -9
18 -9 34 0 43 -24 60 -81 60 -120 0 -140 -52 -72 -186 30 -60 34 -78 30 -115
-3 -24 -6 -50 -6 -57 -1 -8 -10 -11 -27 -8 -37 7 -67 -26 -60 -67 4 -29 4 -28
-6 5 -12 40 -41 59 -79 51 -20 -4 -28 1 -37 22 -22 48 -25 99 -7 141 9 21 18
63 20 93 4 76 -16 95 -98 89 -74 -6 -101 -31 -91 -84 6 -32 4 -34 -20 -34 -18
0 -26 5 -26 18 0 10 -7 28 -16 40 -18 27 -58 29 -132 7 -54 -16 -66 -33 -60
-85 2 -19 -2 -26 -18 -28 -16 -2 -23 4 -27 25 -10 46 -22 55 -66 55 -51 -1
-101 -29 -119 -66 -20 -40 -1 -79 70 -146 50 -47 59 -61 63 -98 4 -41 2 -44
-25 -54 -17 -5 -30 -17 -30 -25 0 -11 -5 -13 -17 -8 -10 5 -29 8 -43 9 -36 1
-71 87 -75 185 -6 133 -38 164 -136 131 -64 -22 -82 -42 -68 -78 11 -30 4 -55
-14 -49 -6 2 -12 8 -12 13 -1 5 -7 19 -15 32 -37 57 -174 -13 -155 -80 13 -47
39 -85 73 -109 35 -24 72 -73 72 -97 0 -7 9 -31 19 -55 10 -23 51 -125 91
-227 40 -102 76 -194 80 -205 5 -11 18 -42 29 -68 16 -38 18 -53 10 -69 -15
-28 -4 -76 22 -97 21 -17 21 -17 -21 -30 -23 -7 -66 -26 -96 -42 l-54 -29 -18
38 c-11 20 -27 58 -37 84 -9 26 -24 49 -32 52 -9 4 -38 -17 -78 -55 -68 -65
-129 -166 -145 -241 -5 -24 -13 -61 -19 -83 -27 -108 -19 -170 34 -297 5 -13
0 -21 -19 -29 -14 -7 -35 -31 -46 -55 l-21 -42 -48 52 c-40 42 -50 59 -54 99
-7 57 -13 67 -37 67 -23 0 -45 -32 -54 -76 -4 -17 -20 -63 -36 -103 -17 -40
-37 -116 -46 -169 -9 -54 -25 -123 -35 -155 -31 -93 -35 -200 -10 -274 12 -34
21 -71 21 -81 0 -10 14 -40 31 -68 18 -27 36 -63 41 -80 5 -19 45 -69 98 -124
50 -51 89 -93 88 -94 -2 -1 -15 -7 -31 -14 -15 -6 -35 -25 -45 -41 l-18 -30
-35 52 c-44 65 -76 83 -102 59 -16 -14 -18 -25 -12 -67 6 -46 6 -104 0 -285
-1 -59 5 -101 36 -240 22 -98 96 -217 157 -249 13 -7 27 -23 32 -36 10 -26 35
-44 167 -118 69 -39 154 -66 213 -67 3 0 3 -23 0 -51 -5 -51 -5 -52 -55 -71
-27 -11 -58 -27 -69 -36 -26 -23 -46 -74 -46 -117 l0 -35 -52 -1 c-29 0 -62
-2 -73 -4 -11 -2 -37 -6 -57 -9 -94 -15 -116 -50 -59 -92 49 -38 141 -126 141
-137 0 -5 -24 -41 -53 -81 -87 -117 -97 -133 -97 -160 0 -14 3 -26 8 -27 4 0
14 -2 23 -4 9 -1 38 1 65 6 138 27 276 15 476 -41 126 -36 134 -45 67 -75 -40
-19 -46 -32 -29 -66 9 -15 22 -19 62 -19 39 0 62 -7 100 -30 26 -16 62 -30 78
-30 17 0 46 -6 65 -14 19 -8 51 -17 72 -20 21 -4 71 -11 111 -18 53 -9 81 -9
105 -1 17 6 50 14 72 18 22 3 56 17 75 29 20 13 51 27 70 31 19 4 58 22 87 41
28 18 64 36 80 38 15 3 35 14 44 25 16 20 17 20 58 -10 44 -33 54 -47 20 -29
-21 12 -27 9 -73 -32 -23 -21 -111 -68 -127 -68 -15 0 -70 -47 -91 -79 -23
-34 -23 -93 1 -122 38 -47 104 -30 199 52 57 49 113 76 164 78 10 1 25 17 36
39 22 48 51 49 74 4 21 -43 19 -42 63 -47 40 -6 90 -32 139 -76 92 -80 156
-99 196 -59 19 19 22 27 23 68 1 62 -42 107 -153 160 -36 17 -80 45 -98 61
-35 33 -47 37 -57 21 -3 -5 -13 -10 -22 -10 -9 0 -1 12 22 30 21 17 40 30 42
30 2 0 48 -31 101 -69 111 -79 124 -86 172 -95 19 -3 43 -15 55 -25 30 -27
188 -61 234 -50 20 5 61 11 91 15 30 3 77 14 105 24 27 9 62 18 77 18 14 1 50
15 78 32 41 24 60 30 87 25 27 -4 39 0 58 19 31 31 25 48 -24 69 -68 30 -102
87 -53 87 9 0 42 9 73 19 168 57 347 79 458 59 183 -33 190 -5 46 183 -63 83
-64 83 -42 98 12 8 31 24 42 35 11 12 44 41 73 64 28 24 52 50 52 57 0 33 -59
52 -185 61 -44 3 -82 8 -84 10 -3 3 -6 20 -8 40 -5 67 -31 104 -94 133 -54 24
-57 28 -61 66 -3 22 -4 41 -3 43 3 3 25 8 81 16 57 9 75 16 109 41 17 12 56
35 89 51 62 31 106 68 106 90 0 7 10 19 23 25 76 39 160 191 173 309 2 25 9
59 14 75 5 17 9 113 9 215 0 102 0 198 1 214 1 19 -4 35 -15 43 -26 18 -66 -8
-101 -68 -29 -49 -44 -61 -44 -35 0 20 -69 78 -83 70 -7 -4 11 16 38 44 108
108 133 138 144 172 6 19 23 51 36 70 36 52 77 203 76 277 -1 69 -16 154 -30
182 -9 16 -25 95 -38 191 -3 19 -20 73 -38 120 -18 47 -36 99 -40 115 -8 34
-32 65 -51 65 -17 0 -31 -26 -37 -71 -5 -44 -10 -51 -60 -105 l-40 -43 -20 41
c-11 22 -33 48 -48 57 -17 10 -25 21 -20 27 8 9 56 144 54 154 0 3 -4 38 -7
78 -4 40 -12 85 -17 100 -6 15 -12 40 -15 56 -7 59 -74 173 -137 235 -34 34
-67 61 -73 61 -18 0 -29 -18 -63 -101 l-31 -76 -94 46 c-81 40 -91 48 -78 60
10 11 13 29 9 67 -5 49 2 71 114 354 65 166 119 305 119 311 0 5 29 37 64 72
49 48 66 72 72 102 9 48 -1 64 -54 91 -53 28 -91 21 -106 -17 -6 -17 -18 -29
-28 -29 -19 0 -33 17 -18 22 17 5 20 51 6 70 -16 22 -83 46 -116 43 -14 -1
-31 -3 -38 -4 -21 -2 -41 -63 -42 -132 -1 -41 -11 -88 -27 -131 -25 -65 -26
-66 -66 -70 -30 -3 -46 1 -59 14 -10 10 -22 18 -28 18 -5 0 -10 22 -10 50 0
44 4 53 36 82 20 18 42 37 50 41 20 12 54 82 54 112 0 33 -35 65 -86 79 -55
16 -82 9 -99 -25 -9 -16 -14 -32 -13 -36 2 -5 -7 -9 -19 -11 -21 -3 -23 1 -23
35 0 22 -6 46 -12 55 -13 16 -89 38 -131 38 -26 0 -57 -28 -61 -57 -2 -12 -11
-18 -27 -18 -19 0 -23 4 -21 24 9 62 -24 91 -101 91 -66 0 -87 -21 -87 -83 0
-29 8 -77 19 -106 17 -50 18 -56 2 -109 -16 -53 -19 -57 -49 -58 -39 -1 -62
-20 -62 -50 0 -12 -4 -25 -9 -28 -5 -4 -7 6 -5 22 7 45 -13 62 -87 71 -4 1
-10 26 -14 56 -6 54 -5 57 32 103 69 84 81 144 38 187 -23 24 -43 29 -115 26
-36 -1 -53 -19 -56 -59 0 -12 -4 -25 -8 -29 -9 -9 -36 -13 -37 -5 -5 47 -10
67 -22 79 -16 16 -65 21 -125 12z m308 -1345 c74 -9 151 -18 170 -20 19 -3 82
-16 140 -30 58 -14 116 -28 130 -30 14 -2 39 -8 55 -13 24 -8 16 -10 -45 -11
-109 -1 -1490 -2 -1520 0 -52 3 272 78 415 96 28 4 75 9 105 13 117 15 413 12
550 -5z m874 -61 c4 -34 2 -43 -9 -43 -16 0 -19 28 -9 68 8 29 11 26 18 -25z
m-2282 -5 c-8 -8 -9 -4 -5 13 4 13 8 18 11 10 2 -7 -1 -18 -6 -23z m-157 -604
c-2 -20 -6 -38 -7 -39 -53 -37 -50 -37 -80 -3 -15 17 -28 34 -28 38 0 3 26 13
58 22 31 8 58 16 59 17 2 0 1 -15 -2 -35z m2691 6 c20 0 17 -11 -15 -50 -25
-29 -31 -32 -45 -21 -9 8 -16 29 -16 48 0 34 1 35 31 29 17 -3 38 -6 45 -6z
m-2696 -890 c0 -49 -4 -63 -21 -78 -12 -9 -34 -45 -50 -79 -15 -35 -38 -73
-51 -85 -13 -13 -20 -19 -15 -14 4 6 7 26 7 47 0 43 -29 84 -74 104 -17 7 -25
14 -18 14 22 2 146 83 179 118 18 18 34 33 37 33 4 0 6 -27 6 -60z m2747 -63
c33 -20 67 -37 75 -37 7 0 -3 -8 -22 -18 -48 -24 -81 -76 -74 -115 5 -31 5
-31 -15 -13 -11 10 -28 39 -37 65 -10 25 -25 55 -34 66 -11 13 -17 41 -18 85
l-2 64 32 -30 c18 -17 61 -47 95 -67z m-2898 -249 c-2 -18 -4 -36 -6 -40 -5
-11 -63 13 -63 25 0 9 49 42 68 46 2 1 2 -14 1 -31z m2968 -34 c0 -7 -15 -14
-33 -16 -30 -4 -33 -2 -36 29 -2 19 -2 35 0 38 7 7 69 -38 69 -51z m-2615
-627 c21 -34 58 -87 83 -117 46 -56 64 -100 26 -66 -10 10 -35 18 -54 19 -32
2 -36 6 -42 34 -6 34 -43 70 -82 79 -18 5 -22 11 -17 27 14 44 35 87 42 87 4
0 24 -28 44 -63z m2280 -34 c2 -18 -5 -27 -31 -40 -37 -19 -71 -58 -75 -88 -2
-11 -12 -19 -24 -20 -13 -1 -19 3 -15 9 9 15 71 109 80 121 5 6 14 23 22 38
12 22 17 25 27 15 7 -7 14 -23 16 -35z m-229 -310 c3 -5 -3 -15 -15 -22 -19
-12 -20 -11 -15 31 8 57 8 57 17 26 4 -14 10 -30 13 -35z m-1903 -4 c0 -11 -4
-18 -10 -14 -5 3 -7 12 -3 20 7 21 13 19 13 -6z m771 -248 c52 -11 131 -22
176 -24 46 -2 85 -6 88 -9 7 -6 -251 -1 -280 6 -11 2 -35 5 -52 5 -26 1 -33 5
-33 21 0 11 2 20 3 20 2 0 46 -9 98 -19z"/>
<path d="M1978 5525 c-2 -2 -19 -7 -37 -10 -229 -40 -397 -237 -440 -514 -10
-63 -8 -247 4 -306 41 -210 155 -366 322 -441 56 -25 75 -30 163 -43 86 -13
196 0 286 32 140 51 250 176 289 327 23 89 25 100 17 101 -21 4 -59 7 -169 14
-100 6 -123 4 -124 -7 -7 -131 -112 -232 -234 -227 -108 5 -188 79 -210 194
-4 22 -9 51 -12 65 -10 53 -9 210 2 295 24 190 100 279 234 276 119 -2 196
-96 200 -244 l1 -28 98 6 c53 4 115 8 137 10 22 2 50 4 62 4 24 1 24 21 -4
126 -54 201 -167 314 -358 360 -32 8 -221 16 -227 10z"/>
<path d="M2762 4868 l3 -643 148 0 147 -1 0 28 c0 15 0 246 0 513 0 267 0 544
0 615 l0 130 -150 0 -150 0 2 -642z"/>
<path d="M3319 5504 c0 -11 0 -1209 0 -1249 l1 -31 273 2 c286 1 334 7 438 53
137 61 251 198 305 366 50 156 39 378 -26 520 -52 115 -158 232 -253 282 -29
15 -95 36 -152 49 -46 10 -585 17 -586 8z m559 -262 c59 -31 100 -77 132 -147
67 -146 64 -315 -7 -462 -57 -119 -139 -165 -299 -167 l-92 -2 0 404 0 404
111 -4 c91 -3 120 -8 155 -26z"/>
<path d="M4802 5493 c-6 -10 -19 -47 -30 -83 -11 -36 -38 -121 -60 -190 -271
-844 -311 -971 -312 -985 0 -5 51 -10 126 -10 105 -1 127 2 133 15 3 8 22 67
41 130 l36 115 208 0 208 0 34 -110 c18 -60 34 -118 34 -127 0 -10 3 -19 8
-19 35 -5 314 -3 318 3 2 4 -11 56 -30 115 -41 128 -90 288 -220 708 -53 171
-106 342 -119 380 l-22 70 -172 3 c-156 2 -173 1 -181 -15z m187 -458 c17 -60
44 -153 61 -205 16 -52 28 -96 25 -98 -5 -6 -246 -8 -255 -2 -4 3 19 93 52
200 33 107 62 206 65 219 8 32 15 18 52 -114z"/>
<path d="M5690 4872 c0 -503 3 -641 13 -644 20 -7 508 -2 556 6 167 27 300
121 391 276 38 64 73 166 85 245 7 47 8 216 1 236 -3 8 -7 31 -10 52 -15 100
-100 243 -199 333 -47 43 -125 91 -160 98 -7 2 -23 6 -37 9 -65 17 -103 20
-362 24 l-278 5 0 -640z m529 382 c166 -49 259 -315 190 -539 -42 -138 -125
-225 -228 -241 -49 -8 -170 -12 -186 -7 -6 2 -9 142 -9 396 1 215 2 395 3 400
2 13 176 7 230 -9z"/>
<path d="M6940 4868 l0 -643 457 0 458 0 0 125 0 125 -60 2 c-33 1 -170 2
-305 2 l-245 1 1 132 c1 73 2 136 3 141 1 4 108 7 239 7 l237 0 0 118 0 117
-239 5 -240 5 0 129 -1 130 305 0 305 1 0 120 0 120 -457 3 -458 2 0 -642z"/>
<path d="M8519 5509 c-4 -20 -1 -1268 4 -1275 3 -6 113 -9 274 -8 210 1 281 4
329 17 132 34 227 97 307 202 90 117 127 232 132 406 5 193 -38 326 -148 460
-84 101 -172 153 -312 185 -31 7 -584 19 -586 13z m568 -273 c61 -34 112 -100
144 -191 17 -47 22 -84 22 -170 1 -125 -20 -204 -76 -288 -58 -87 -129 -118
-270 -121 l-92 -1 -2 404 -2 403 112 -4 c101 -3 117 -6 164 -32z"/>
<path d="M9768 5503 c-3 -7 -2 -1219 1 -1263 1 -13 58 -15 456 -15 297 0 455
3 455 10 1 17 1 198 1 222 -1 22 -3 22 -153 22 -84 0 -222 0 -305 1 l-153 0 0
140 0 140 240 0 240 0 0 120 0 120 -240 0 -240 0 0 129 c0 114 2 129 18 133 9
2 146 3 305 3 l287 -1 1 58 c0 32 1 74 1 93 0 19 -1 49 -1 65 l-1 30 -454 0
c-250 0 -456 -3 -458 -7z"/>
<path d="M1766 3999 c-82 -19 -133 -68 -175 -168 -17 -41 -20 -56 -10 -61 21
-14 79 -3 102 18 24 22 70 38 102 33 11 -1 92 -20 181 -42 225 -55 308 -51
401 19 31 23 109 159 98 170 -2 3 -25 7 -51 10 -36 3 -50 0 -67 -16 -36 -33
-71 -43 -124 -32 -60 12 -134 33 -193 56 -51 19 -203 27 -264 13z"/>
<path d="M3483 3648 c-109 -11 -290 -78 -382 -141 -116 -79 -227 -234 -269
-372 -63 -211 -51 -434 35 -628 105 -239 325 -399 608 -444 64 -10 296 -10
355 0 269 47 482 187 578 383 33 65 68 171 77 231 3 21 8 50 10 63 7 37 7 158
0 215 -28 220 -147 428 -308 537 -180 122 -447 181 -704 156z m257 -369 c156
-50 262 -261 257 -514 -2 -95 -6 -118 -29 -167 -47 -101 -117 -157 -233 -183
-136 -32 -278 30 -353 154 -28 45 -58 118 -67 160 -3 11 -7 31 -10 44 -3 12
-7 63 -9 112 -9 208 79 359 230 399 54 14 160 12 214 -5z"/>
<path d="M11150 3649 c-79 -8 -197 -47 -308 -101 -61 -30 -100 -58 -155 -112
-97 -98 -184 -248 -201 -346 -3 -19 -8 -46 -12 -60 -15 -59 -13 -266 2 -340
72 -344 307 -565 664 -627 56 -9 280 -10 340 -1 211 32 352 99 481 228 60 60
85 95 117 161 56 118 83 230 88 369 8 248 -73 454 -243 616 -160 153 -484 242
-773 213z m285 -383 c111 -50 194 -183 223 -356 9 -49 8 -209 0 -245 -15 -64
-22 -81 -50 -122 -66 -97 -212 -155 -336 -132 -190 36 -312 238 -307 509 3
127 21 191 74 258 69 87 148 121 273 115 48 -2 87 -10 123 -27z"/>
<path d="M520 3639 c-155 -25 -264 -73 -340 -151 -199 -204 -190 -607 15 -720
53 -29 151 -63 355 -123 69 -20 133 -44 142 -53 10 -9 19 -34 22 -56 8 -62
-31 -91 -119 -88 -72 2 -107 5 -160 13 -33 5 -78 11 -100 13 -22 3 -74 10
-115 17 -151 23 -138 24 -148 -18 -5 -21 -23 -109 -39 -196 l-30 -159 23 -8
c12 -5 42 -11 65 -15 24 -3 52 -8 61 -11 91 -27 392 -39 528 -22 77 10 193 44
253 74 62 32 146 110 188 175 39 61 77 180 83 256 7 109 -40 257 -100 317 -67
66 -154 105 -384 172 -85 24 -166 52 -179 62 -56 41 -46 112 19 144 74 36 272
17 508 -48 15 -4 22 -2 23 7 1 17 5 43 24 139 35 180 40 237 24 237 -8 1 -48
8 -89 17 -41 8 -91 18 -110 22 -57 10 -361 12 -420 3z"/>
<path d="M6807 3605 c-17 -43 -171 -454 -194 -520 -29 -79 -354 -951 -364
-974 -5 -13 -7 -26 -5 -29 6 -5 475 -6 481 -1 1 2 23 67 48 144 l45 140 239 3
239 2 44 -145 c41 -138 44 -145 69 -146 30 -1 445 -1 478 0 21 1 21 2 8 34
-12 29 -127 342 -285 777 -21 58 -52 141 -68 185 -16 44 -59 163 -96 265 -73
201 -107 292 -113 300 -2 2 -118 5 -257 5 l-253 0 -16 -40z m337 -696 c37
-114 66 -209 66 -213 0 -3 -70 -6 -156 -6 -101 0 -153 3 -149 10 3 6 33 90 66
188 89 263 91 268 100 246 5 -10 37 -112 73 -225z"/>
<path d="M1761 3576 c-10 -28 -36 -96 -56 -151 -20 -55 -40 -109 -45 -120 -9
-19 -460 -1224 -460 -1228 0 -1 109 -1 242 -1 l243 1 45 144 46 144 235 3 235
2 44 -145 c24 -80 48 -145 54 -146 6 0 121 -1 256 -1 218 0 245 2 242 16 -3
16 -52 151 -277 766 -75 206 -154 422 -175 480 -21 58 -53 146 -72 195 l-34
90 -252 1 -252 0 -19 -50z m269 -458 c0 -11 115 -377 130 -415 l9 -22 -156 0
c-120 -1 -154 2 -151 12 3 6 38 109 79 229 40 119 77 214 81 212 5 -3 8 -10 8
-16z"/>
<path d="M5078 3611 c-6 -30 -1 -1521 5 -1527 5 -5 326 -8 458 -5 l26 1 -1
246 c-1 135 1 247 4 249 3 2 63 5 134 6 284 5 460 54 560 154 151 151 186 392
88 607 -67 145 -170 214 -395 265 -107 24 -874 27 -879 4z m701 -332 c128 -27
179 -206 88 -303 -19 -19 -50 -39 -73 -45 -43 -12 -204 -18 -220 -9 -6 5 -11
346 -5 366 3 7 167 0 210 -9z"/>
<path d="M7916 3615 c-6 -16 1 -1084 8 -1125 19 -120 52 -201 102 -253 35 -37
114 -87 189 -119 57 -24 91 -33 218 -57 53 -10 325 -7 397 3 126 20 274 82
342 145 74 68 116 168 134 321 3 30 6 289 6 575 l1 520 -214 1 c-118 1 -218
-2 -224 -5 -6 -4 -10 -189 -11 -521 0 -283 -3 -533 -7 -555 -14 -74 -55 -117
-131 -136 -61 -15 -183 -6 -224 15 -43 22 -78 72 -90 128 -5 27 -9 266 -9 560
l0 513 -241 1 c-170 0 -243 -3 -246 -11z"/>
<path d="M9515 3621 c-3 -2 -5 -350 -5 -773 l0 -768 23 -1 c134 -4 959 0 964
4 5 5 8 263 4 345 l-1 22 -250 0 -250 0 0 588 0 588 -240 0 c-132 0 -243 -2
-245 -5z"/>
<path d="M2010 1440 c-109 -31 -181 -128 -175 -235 6 -95 57 -146 186 -186
105 -33 130 -53 123 -103 -5 -41 -25 -57 -76 -63 -50 -6 -87 9 -143 59 -20 17
-38 28 -42 25 -3 -4 -23 -35 -44 -69 -35 -59 -36 -64 -21 -82 46 -50 185 -100
251 -90 91 13 135 30 175 65 54 48 77 94 81 167 4 69 -14 124 -51 163 -25 27
-141 79 -174 79 -8 0 -30 9 -47 20 -25 15 -33 27 -33 49 0 62 82 80 165 36 26
-14 48 -24 49 -23 18 25 56 124 52 133 -14 37 -208 75 -276 55z"/>
<path d="M10055 1439 c-96 -23 -165 -106 -170 -207 -7 -114 42 -170 182 -212
92 -28 123 -51 123 -93 0 -38 -7 -50 -37 -66 -49 -25 -125 -4 -186 53 -15 14
-30 26 -31 26 -5 0 -86 -130 -86 -137 0 -7 23 -26 71 -58 102 -67 267 -63 360
8 113 86 124 282 20 356 -15 11 -66 33 -112 47 -46 15 -92 34 -102 43 -29 28
-29 58 1 82 22 17 36 20 75 15 26 -3 61 -14 76 -26 16 -11 32 -20 35 -20 7 0
69 132 64 134 -2 1 -15 9 -29 18 -56 35 -184 54 -254 37z"/>
<path d="M2433 1173 c3 -142 8 -271 11 -288 13 -57 59 -119 111 -147 114 -62
328 -53 422 18 17 13 44 50 60 81 l28 58 3 268 4 267 -99 0 -98 0 -1 -238 c-1
-265 -8 -301 -63 -320 -39 -14 -115 -9 -136 8 -42 35 -46 62 -48 311 l-1 239
-99 0 -99 0 5 -257z"/>
<path d="M3219 1419 c-6 -75 -3 -687 3 -695 10 -15 316 -10 393 6 101 21 152
75 160 170 7 87 -41 174 -103 186 -40 8 -49 20 -19 28 97 27 124 181 45 256
-49 46 -82 53 -285 58 -158 3 -193 2 -194 -9z m308 -138 c16 -7 33 -40 33 -66
0 -25 -6 -39 -24 -50 -22 -15 -108 -27 -131 -18 -8 3 -11 68 -6 131 1 10 17
12 64 8 34 -2 63 -5 64 -5z m44 -287 c26 -23 26 -85 0 -108 -20 -19 -170 -35
-172 -19 -1 11 -1 125 0 140 2 19 148 8 172 -13z"/>
<path d="M3894 1075 c0 -195 3 -356 6 -356 3 -1 44 -2 91 -3 l86 -1 -1 108
c-1 60 1 112 4 117 3 4 48 10 100 12 162 8 233 66 247 203 9 85 -12 150 -66
205 -59 61 -99 70 -309 70 l-158 0 0 -355z m282 196 c56 -2 84 -84 45 -132
-14 -18 -31 -23 -80 -27 -47 -3 -61 -1 -62 9 -1 14 -1 152 0 156 1 1 18 1 39
-1 20 -3 46 -5 58 -5z"/>
<path d="M4530 1072 l0 -358 88 1 87 0 5 140 c5 133 6 139 20 110 36 -70 143
-245 151 -246 5 -1 54 -2 109 -3 69 -1 99 2 96 10 -2 6 -43 68 -90 137 -47 69
-86 130 -86 134 0 5 15 15 34 21 123 45 155 239 56 343 -52 55 -106 67 -304
68 l-166 2 0 -359z m310 183 c22 -20 35 -73 25 -104 -10 -31 -47 -52 -105 -58
l-50 -5 0 97 0 97 55 -4 c33 -3 62 -12 75 -23z"/>
<path d="M5172 1073 l3 -358 215 0 215 0 3 74 c2 44 -1 77 -7 81 -6 3 -63 6
-126 5 l-116 0 3 60 3 60 108 1 c67 0 111 5 115 11 6 9 7 74 3 131 -1 9 -31
12 -116 12 l-115 0 0 59 c0 38 4 60 13 63 6 2 53 3 102 1 140 -3 135 -6 135
82 l0 75 -220 0 -220 0 2 -357z"/>
<path d="M5739 1423 c-1 -5 -2 -163 -3 -351 0 -220 3 -346 9 -350 17 -11 175
-8 177 3 0 5 2 62 3 125 2 63 3 122 4 131 1 14 17 16 114 15 l112 -1 3 77 3
77 -118 3 -117 3 1 48 c0 26 1 53 2 60 1 9 32 12 121 11 66 0 121 3 121 8 1 4
2 40 3 78 l1 70 -217 0 c-120 0 -218 -3 -219 -7z"/>
<path d="M6280 1072 l0 -357 218 0 217 0 2 80 1 80 -111 -1 c-62 0 -118 2
-124 4 -9 3 -13 24 -13 61 l0 57 108 -1 c59 -1 112 0 117 2 8 3 12 103 6 146
-1 4 -53 7 -116 7 l-115 0 0 59 c0 70 -7 67 142 66 l107 -1 0 78 -1 78 -219 0
-219 0 0 -358z"/>
<path d="M6852 1073 l3 -358 85 0 c47 -1 91 1 98 3 9 3 12 84 12 358 l0 354
-100 0 -100 0 2 -357z"/>
<path d="M7150 1345 l0 -85 80 0 80 0 0 -273 0 -273 93 2 c50 1 94 2 97 3 3 0
5 121 5 267 0 146 3 268 8 271 4 3 39 5 76 4 79 -1 78 -2 76 99 l-1 65 -257 3
-257 2 0 -85z"/>
<path d="M7755 1172 c2 -288 10 -332 68 -392 107 -110 395 -112 499 -3 58 61
62 83 66 381 l4 272 -96 0 c-53 0 -96 -3 -97 -7 0 -5 -1 -114 -3 -243 -2 -263
-8 -288 -67 -309 -86 -30 -159 4 -173 81 -3 13 -5 125 -5 251 l-1 227 -98 0
-98 0 1 -258z"/>
<path d="M8540 1074 l0 -359 90 0 c74 0 90 2 91 15 0 8 1 71 0 140 l0 124 27
-44 c15 -25 52 -88 82 -140 l55 -94 198 -1 c124 0 201 3 206 10 5 5 14 34 22
63 8 34 18 52 28 53 18 1 253 1 262 0 4 -1 10 -13 13 -28 4 -16 11 -44 16 -63
l9 -35 96 0 c52 -1 95 2 95 6 0 3 -39 118 -86 255 -47 137 -102 295 -121 352
l-35 102 -123 0 -124 0 -15 -47 c-13 -42 -57 -170 -178 -518 -17 -49 -35 -101
-40 -114 -8 -22 -16 -13 -98 107 -50 72 -90 135 -90 139 0 5 16 15 36 22 118
43 153 221 64 334 -12 15 -41 37 -63 49 -38 20 -61 23 -229 26 l-188 4 0 -358z
m974 69 c25 -83 46 -153 46 -155 0 -3 -43 -5 -95 -5 -72 0 -95 3 -91 13 6 15
65 215 78 267 6 21 12 36 13 35 2 -2 24 -71 49 -155z m-663 111 c11 -11 22
-33 25 -49 12 -68 -21 -104 -104 -111 l-49 -4 -1 96 0 96 55 -4 c36 -3 61 -11
74 -24z"/>
</g>
</svg>
